<svg xmlns="http://www.w3.org/2000/svg" fill="none" viewBox="0 0 174 174"><path fill="#adb6b7" fill-rule="evenodd" d="M51.93 1.95c16.74-6.9 35.12 5.4 35.12 23.5h.1c.06-18.1 18.49-30.34 35.2-23.39 16.71 6.96 21 28.65 8.2 41.46l.08.07c12.84-12.76 34.52-8.4 41.42 8.34s-5.4 35.12-23.5 35.12v.1c18.1.06 30.34 18.48 23.39 35.2-6.96 16.71-28.65 21-41.45 8.2l-.07.08c12.75 12.84 8.38 34.53-8.35 41.43s-35.12-5.4-35.12-23.51h-.1c-.06 18.1-18.48 30.34-35.2 23.39-16.7-6.96-21-28.65-8.2-41.45l-.08-.08c-12.84 12.76-34.52 8.4-41.42-8.34s5.4-35.12 23.5-35.12v-.1c-18.1-.06-30.34-18.48-23.39-35.2 6.96-16.71 28.65-21 41.46-8.2l.07-.08c-12.76-12.84-8.4-34.52 8.34-41.42m27.5 113.4a16 16 0 0 0-7.58 8.36 16.3 16.3 0 0 0 1.34 15.05 16.3 16.3 0 0 0 8.65-12.38c.56-4.2-.44-7.99-2.41-11.02m15.2-.02a16.2 16.2 0 0 0-2.4 11.03 16.3 16.3 0 0 0 8.69 12.37 16.3 16.3 0 0 0 1.3-15.05 16.2 16.2 0 0 0-7.6-8.35m-28.36-7.55c-3.62-.18-7.4.86-10.75 3.44a16.3 16.3 0 0 0-6.37 13.7l.2.02a16.3 16.3 0 0 0 13.5-6.41 16.2 16.2 0 0 0 3.42-10.75m42.8-.06q-.64-.02-1.3 0c-.18 3.63.87 7.4 3.45 10.75a16.3 16.3 0 0 0 13.71 6.38v-.2a16.3 16.3 0 0 0-6.4-13.5 16 16 0 0 0-9.46-3.44m-50.41-13.1a16.2 16.2 0 0 0-11.03-2.38 16.3 16.3 0 0 0-12.37 8.68 16.3 16.3 0 0 0 15.05 1.3 16.2 16.2 0 0 0 8.35-7.6m65.93-2.61a16 16 0 0 0-9.24 2.55 16 16 0 0 0 8.36 7.58 16.3 16.3 0 0 0 15.05-1.33 16.3 16.3 0 0 0-14.17-8.8m-74.3-20.15a16.3 16.3 0 0 0-15.05 1.34A16.3 16.3 0 0 0 49.4 82a16 16 0 0 0 9.24-2.56 16 16 0 0 0-8.36-7.58m80.16-1.34c-2.22-.07-4.52.32-6.76 1.26a16 16 0 0 0-8.35 7.59 16 16 0 0 0 11.04 2.39 16.3 16.3 0 0 0 12.36-8.69 16.4 16.4 0 0 0-8.29-2.55m-67.67-15a16.3 16.3 0 0 0-13.7-6.36l-.01.18a16.3 16.3 0 0 0 6.41 13.5 16.2 16.2 0 0 0 10.75 3.43c.17-3.62-.87-7.4-3.45-10.74m61.89-6.46a16.3 16.3 0 0 0-13.51 6.41 16.2 16.2 0 0 0-3.43 10.75c3.63.18 7.4-.86 10.75-3.45a16.3 16.3 0 0 0 6.37-13.7zm-51.58-13.8a16.3 16.3 0 0 0-1.3 15.06 16 16 0 0 0 7.6 8.34 16.2 16.2 0 0 0 2.37-11.03 16.3 16.3 0 0 0-8.67-12.37m27.72-.02A16.3 16.3 0 0 0 92 49.4a16 16 0 0 0 2.56 9.25 16 16 0 0 0 7.58-8.37 16.3 16.3 0 0 0-1.34-15.04" clip-rule="evenodd" opacity=".1"/></svg>